<svg width="32" height="35" viewBox="0 0 32 35" fill="none" xmlns="http://www.w3.org/2000/svg">
<circle cx="16" cy="19" r="16" fill="#FFD704"/>
<path d="M18.4 27L15.48 21.7H14.66V27H11.24V12.96H16.98C18.0867 12.96 19.0267 13.1533 19.8 13.54C20.5867 13.9267 21.1733 14.46 21.56 15.14C21.9467 15.8067 22.14 16.5533 22.14 17.38C22.14 18.3133 21.8733 19.1467 21.34 19.88C20.82 20.6133 20.0467 21.1333 19.02 21.44L22.26 27H18.4ZM14.66 19.28H16.78C17.4067 19.28 17.8733 19.1267 18.18 18.82C18.5 18.5133 18.66 18.08 18.66 17.52C18.66 16.9867 18.5 16.5667 18.18 16.26C17.8733 15.9533 17.4067 15.8 16.78 15.8H14.66V19.28Z" fill="black"/>
</svg>
